<svg id="Capa_1" enable-background="new 0 0 512 512" height="512" viewBox="0 0 512 512" width="512" xmlns="http://www.w3.org/2000/svg"><g><path d="m409.764 458.122-25.227-58.02c-7.264 7.4-17.369 12.001-28.532 12.001s-21.268-4.601-28.532-12.001l-25.227 58.02c-4.301 9.889 2.958 20.981 13.757 20.981h80.004c10.784 0 18.064-11.078 13.757-20.981z" fill="#fbbd43"/><path d="m396.008 479.1h-40.002v-67c11.16 0 21.271-4.6 28.532-12l25.231 58.02c4.3 9.9-2.981 20.98-13.761 20.98z" fill="#f19637"/><path d="m90.991 217.852v120.251c0 2.707.732 5.363 2.12 7.688 50.795 85.102 274.864 85.301 325.777 0 1.388-2.324 2.12-4.98 2.12-7.688v-120.251z" fill="#607881"/><path d="m421.009 217.85v120.25c0 2.71-.73 5.37-2.12 7.69-25.451 42.64-94.175 63.92-162.889 63.9v-191.84z" fill="#55696e"/><path d="m503.731 155.192-241.013-120.707c-4.229-2.118-9.208-2.118-13.436 0l-241.013 120.707c-11.017 5.518-11.033 21.298 0 26.823l241.013 120.705c4.227 2.117 9.207 2.118 13.436 0l241.013-120.706c11.018-5.517 11.033-21.297 0-26.822z" fill="#55696e"/><path d="m503.733 182.01-241.013 120.71c-2.12 1.06-4.42 1.59-6.72 1.59v-271.41c2.3 0 4.6.53 6.72 1.59l241.013 120.7c11.031 5.53 11.011 21.31 0 26.82z" fill="#495959"/><path d="m342.005 334.637c4.36-1.635 9.077-2.534 14.001-2.534 5.687 0 11.097 1.201 16.001 3.35v-81.182c0-5.405-2.907-10.392-7.612-13.054l-106.006-60c-7.207-4.08-16.361-1.545-20.443 5.665-4.081 7.209-1.545 16.362 5.665 20.443l98.394 55.692z" fill="#fbbd43"/><path d="m372.006 254.27v81.18c-4.9-2.15-10.311-3.35-16.001-3.35v-95.63l8.391 4.75c4.7 2.66 7.61 7.65 7.61 13.05z" fill="#f19637"/><ellipse cx="356.005" cy="372.103" fill="#3bc9ea" rx="45.002" ry="45"/><path d="m401.008 372.1c0 24.82-20.191 45-45.002 45v-90c24.811 0 45.002 20.19 45.002 45z" fill="#13b8e5"/></g></svg>