<svg id="Capa_1" enable-background="new 0 0 512 512" height="512" viewBox="0 0 512 512" width="512" xmlns="http://www.w3.org/2000/svg"><g><path d="m376 60.5v51h-30v-51c0-8.27-6.73-15-15-15h-150c-8.27 0-15 6.73-15 15v51h-30v-51c0-24.81 20.19-45 45-45h150c24.81 0 45 20.19 45 45z" fill="#b36e5a"/><path d="m376 60.5v51h-30v-51c0-8.27-6.73-15-15-15h-75v-30h75c24.81 0 45 20.19 45 45z" fill="#a55d4e"/><path d="m512 151.5v330c0 8.28-6.72 15-15 15h-482c-8.28 0-15-6.72-15-15v-330c0-24.81 20.19-45 45-45h61l9.59 10h72.719l7.69-10h120l8.019 10h74.768l7.214-10h61c24.81 0 45 20.19 45 45z" fill="#d69a8b"/><path d="m512 151.5v330c0 8.28-6.72 15-15 15h-241v-390h60l8.02 10h74.77l7.21-10h61c24.81 0 45 20.19 45 45z" fill="#c28678"/><path d="m61 331.5v90c0 8.284 6.716 15 15 15h150c8.284 0 15-6.716 15-15v-90l-10-10h-158.846z" fill="#c28678"/><path d="m271 331.5v90c0 8.284 6.716 15 15 15h150c8.284 0 15-6.716 15-15v-90l-10.846-10h-156.308z" fill="#b36e5a"/><path d="m196 106.5v75c0 8.28-6.72 15-15 15h-60c-8.28 0-15-6.72-15-15v-75z" fill="#c28678"/><path d="m406 106.5v75c0 8.28-6.72 15-15 15h-60c-8.28 0-15-6.72-15-15v-75z" fill="#b36e5a"/><path d="m241 241.5c0-8.284-6.716-15-15-15h-150c-8.284 0-15 6.716-15 15v90h75v30c0 8.284 6.716 15 15 15s15-6.716 15-15v-30h75z" fill="#b36e5a"/><path d="m451 241.5c0-8.284-6.716-15-15-15h-150c-8.284 0-15 6.716-15 15v90h75v30c0 8.284 6.716 15 15 15s15-6.716 15-15v-30h75z" fill="#a55d4e"/></g></svg>