<svg id="Capa_1" enable-background="new 0 0 512.004 512.004" height="512" viewBox="0 0 512.004 512.004" width="512" xmlns="http://www.w3.org/2000/svg"><g><path d="m439 467.87v29.132c0 8.284 6.716 15 15 15s15-6.716 15-15v-28.861z" fill="#607881"/><path d="m469 468.142v28.86c0 8.23-6.64 14.92-14.85 15v-43.99z" fill="#495959"/><path d="m509.2 181.002c-3.52-71.08-9.21-130.12-10.05-138.64-.45-23.43-20.46-42.36-44.99-42.36s-44.53 18.93-44.99 42.36c-.84 8.53-6.54 67.57-10.07 138.64-.247 4.945 2.518 9.949 2.296 15h105.505c-.22-5.051 2.546-10.056 2.299-15z" fill="#f47160"/><path d="m506.9 196.002h-52.75v-196h.01c24.53 0 44.54 18.93 44.99 42.36.84 8.52 6.53 67.56 10.05 138.64.25 4.94-2.52 9.95-2.3 15z" fill="#fc5832"/><path d="m506.902 196.002h-105.506c-.218 4.958-3.423 9.962-3.616 15-3.12 82.13-2.34 172.62 12.08 218.13 5.01 15.8 15.36 39.36 29.14 48.74l30 .27c13.99-9.25 24.41-33.03 29.46-49.02 14.39-45.51 15.17-135.99 12.05-218.12-.188-5.035-3.392-10.039-3.608-15z" fill="#3bc9ea"/><path d="m498.46 429.122c-5.05 15.99-15.47 39.77-29.46 49.02l-14.85-.13v-282.01h52.75c.22 4.96 3.42 9.97 3.61 15 3.12 82.13 2.34 172.61-12.05 218.12z" fill="#13b8e5"/><path d="m345 .002h-330c-8.284 0-15 6.716-15 15v482c0 8.284 6.716 15 15 15h330c8.284 0 15-6.716 15-15v-482c0-8.284-6.716-15-15-15z" fill="#f5f2f1"/><path d="m180 .002h165c8.28 0 15 6.72 15 15v482c0 8.28-6.72 15-15 15h-165c0-24.57 0-486.455 0-512z" fill="#e8e1de"/><path d="m312.479 358.682c-4.595-6.893-13.909-8.754-20.801-4.161l-30.893 20.596c-9.431 6.287-5.972 17.103-6.715 22.967l-38.624-15.057c-9.818-3.825-20.448 3.417-20.448 13.976v21.553l-7.434 4.508c-7.084 4.295-9.344 13.52-5.049 20.604 4.282 7.062 13.501 9.356 20.604 5.049l14.656-8.887c9.886-5.994 6.608-16.802 7.223-20.879l38.552 15.029c9.779 3.812 20.413-3.367 20.448-13.926l.081-24.409 24.239-16.16c6.894-4.598 8.756-13.911 4.161-20.803z" fill="#fc5832"/><path d="m130.34 121.002h100c8.284 0 15-6.716 15-15s-6.716-15-15-15h-100c-8.284 0-15 6.716-15 15s6.716 15 15 15z" fill="#55696e"/><path d="m245 106.002c0 8.28-6.72 15-15 15h-50v-30h50c8.28 0 15 6.72 15 15z" fill="#495959"/><path d="m65 181.002h230c8.284 0 15-6.716 15-15s-6.716-15-15-15h-230c-8.284 0-15 6.716-15 15s6.716 15 15 15z" fill="#55696e"/><path d="m310 166.002c0 8.28-6.72 15-15 15h-115v-30h115c8.28 0 15 6.72 15 15z" fill="#495959"/><path d="m295 211.002h-230c-8.284 0-15 6.716-15 15s6.716 15 15 15h230c8.284 0 15-6.716 15-15s-6.716-15-15-15z" fill="#55696e"/><path d="m310 226.002c0 8.28-6.72 15-15 15h-115v-30h115c8.28 0 15 6.72 15 15z" fill="#495959"/><path d="m295 271.002h-230c-8.284 0-15 6.716-15 15s6.716 15 15 15h230c8.284 0 15-6.716 15-15s-6.716-15-15-15z" fill="#55696e"/><path d="m310 286.002c0 8.28-6.72 15-15 15h-115v-30h115c8.28 0 15 6.72 15 15z" fill="#495959"/><path d="m510.51 211.002h-112.73c.39-10.17.83-20.2 1.32-30h110.1c.49 9.8.93 19.84 1.31 30z" fill="#13b8e5"/><path d="m510.51 211.002h-56.36v-30h55.05c.49 9.8.93 19.84 1.31 30z" fill="#00a4dc"/></g></svg>