<svg id="Capa_1" enable-background="new 0 0 512 512" height="512" viewBox="0 0 512 512" width="512" xmlns="http://www.w3.org/2000/svg"><g><path d="m307 .076-267-.076c-8.284 0-15 6.716-15 15v452c0 8.284 6.716 15 15 15h357c8.284 0 15-6.716 15-15l-.05-362-65.614-46.216z" fill="#f5f2f1"/><path d="m412 467c0 8.28-6.72 15-15 15h-178.5v-481.95l88.5.03 39.34 58.7 65.61 46.22z" fill="#e8e1de"/><path d="m411.95 105-104.95-104.924v94.924c0 5.523 4.477 10 10 10z" fill="#dbd1cc"/><circle cx="397" cy="309.5" fill="#d69a8b" r="52.5"/><path d="m449.5 309.5c0 28.95-23.55 52.5-52.5 52.5v-105c28.95 0 52.5 23.55 52.5 52.5z" fill="#c28678"/><path d="m397 362c-49.626 0-90 40.374-90 90v45c0 8.284 6.716 15 15 15h150c8.284 0 15-6.716 15-15v-45c0-49.626-40.374-90-90-90z" fill="#3bc9ea"/><path d="m487 452v45c0 8.28-6.72 15-15 15h-75v-150c49.63 0 90 40.37 90 90z" fill="#13b8e5"/><g fill="#c6bbb6"><path d="m101 271h45c8.284 0 15-6.716 15-15s-6.716-15-15-15h-45c-8.284 0-15 6.716-15 15s6.716 15 15 15z"/><path d="m146 301h-45c-8.284 0-15 6.716-15 15s6.716 15 15 15h45c8.284 0 15-6.716 15-15s-6.716-15-15-15z"/><path d="m146 361h-45c-8.284 0-15 6.716-15 15s6.716 15 15 15h45c8.284 0 15-6.716 15-15s-6.716-15-15-15z"/></g><circle cx="203.5" cy="256" fill="#eb8b7f" r="15"/><circle cx="264" cy="256" fill="#f47160" r="15"/><circle cx="264" cy="316" fill="#f47160" r="15"/><circle cx="324" cy="256" fill="#f47160" r="15"/><circle cx="203.5" cy="316" fill="#eb8b7f" r="15"/><circle cx="203.5" cy="376.274" fill="#eb8b7f" r="15"/><path d="m251 181h-150c-8.284 0-15 6.716-15 15s6.716 15 15 15h150c8.284 0 15-6.716 15-15s-6.716-15-15-15z" fill="#dbd1cc"/><path d="m266 196c0 8.28-6.72 15-15 15h-32.5v-30h32.5c8.28 0 15 6.72 15 15z" fill="#c6bbb6"/><path d="m101 151h150c8.284 0 15-6.716 15-15s-6.716-15-15-15h-150c-8.284 0-15 6.716-15 15s6.716 15 15 15z" fill="#dbd1cc"/><path d="m266 136c0 8.28-6.72 15-15 15h-32.5v-30h32.5c8.28 0 15 6.72 15 15z" fill="#c6bbb6"/></g></svg>