<svg id="Capa_1" enable-background="new 0 0 512 512" height="512" viewBox="0 0 512 512" width="512" xmlns="http://www.w3.org/2000/svg"><g><path d="m436 0h-360c-8.284 0-15 6.716-15 15v482c0 8.284 6.716 15 15 15h360c8.284 0 15-6.716 15-15v-482c0-8.284-6.716-15-15-15z" fill="#f5f2f1"/><path d="m451 15v482c0 8.28-6.72 15-15 15h-180v-512h180c8.28 0 15 6.72 15 15z" fill="#e8e1de"/><circle cx="323.5" cy="120" fill="#c28678" r="45"/><path d="m346 165h-45c-24.813 0-45 20.187-45 45v30c0 8.284 6.716 15 15 15h105c8.284 0 15-6.716 15-15v-30c0-24.813-20.187-45-45-45z" fill="#fc5832"/><g fill="#dbd1cc"><path d="m136 195h85c8.284 0 15-6.716 15-15s-6.716-15-15-15h-85c-8.284 0-15 6.716-15 15s6.716 15 15 15z"/><path d="m136 135h85c8.284 0 15-6.716 15-15s-6.716-15-15-15h-85c-8.284 0-15 6.716-15 15s6.716 15 15 15z"/><path d="m136 255h85c8.284 0 15-6.716 15-15s-6.716-15-15-15h-85c-8.284 0-15 6.716-15 15s6.716 15 15 15z"/><path d="m136 315h240c8.284 0 15-6.716 15-15s-6.716-15-15-15h-240c-8.284 0-15 6.716-15 15s6.716 15 15 15z"/></g><path d="m391 300c0 8.28-6.72 15-15 15h-120v-30h120c8.28 0 15 6.72 15 15z" fill="#c6bbb6"/><path d="m376 345h-240c-8.284 0-15 6.716-15 15s6.716 15 15 15h240c8.284 0 15-6.716 15-15s-6.716-15-15-15z" fill="#dbd1cc"/><path d="m391 360c0 8.28-6.72 15-15 15h-120v-30h120c8.28 0 15 6.72 15 15z" fill="#c6bbb6"/><path d="m376 405h-240c-8.284 0-15 6.716-15 15s6.716 15 15 15h240c8.284 0 15-6.716 15-15s-6.716-15-15-15z" fill="#dbd1cc"/><path d="m391 420c0 8.28-6.72 15-15 15h-120v-30h120c8.28 0 15 6.72 15 15z" fill="#c6bbb6"/></g></svg>