<svg id="Capa_1" enable-background="new 0 0 512 512" height="512" viewBox="0 0 512 512" width="512" xmlns="http://www.w3.org/2000/svg"><g><path d="m256 247.062h-95.092c20.909-11.821 34.706-34.75 33.396-60.767-1.693-33.62-29.026-60.828-62.653-62.38-37.79-1.744-68.979 28.381-68.979 65.787 0 24.602 13.49 46.059 33.482 57.361h-81.154c-8.284 0-15 6.716-15 15v81.597c11.738-18.047 32.101-29.987 55.237-29.987 37.396 0 67.515 31.173 65.788 68.949-1.546 33.815-29.02 61.227-62.838 62.704-24.348 1.063-45.953-11.112-58.187-29.923v81.597c0 8.284 6.716 15 15 15h226c8.284 0 15-6.716 15-15z" fill="#13b8e5"/><path d="m256 247.06v249.94c0 8.284-6.716 15-15 15h-113v-388.15c.003-.003.005-.005.008-.008 36.609-.284 66.382 29.314 66.382 65.858 0 24.6-13.49 46.06-33.48 57.36z" fill="#00a4dc"/><path d="m453.814 189.894c24.348-1.064 45.952 11.112 58.186 29.923v-81.597c0-8.284-6.716-15-15-15h-81.154c20.909-11.821 34.706-34.75 33.396-60.767-1.693-33.62-29.026-60.828-62.652-62.381-37.79-1.745-68.98 28.381-68.98 65.787 0 24.601 13.49 46.059 33.482 57.361h-80.092c-8.284 0-15 6.716-15 15v249.938h241c8.284 0 15-6.716 15-15v-81.597c-11.738 18.047-32.101 29.987-55.237 29.987-37.396 0-67.515-31.173-65.788-68.949 1.546-33.815 29.02-61.227 62.839-62.705z" fill="#f47160"/><path d="m390.98 252.6c-1.73 37.78 28.39 68.95 65.78 68.95 23.14 0 43.5-11.94 55.24-29.99v81.6c0 8.28-6.72 15-15 15h-113v-388.15c36.13.28 65.33 29.66 65.33 65.85 0 24.6-13.49 46.06-33.48 57.36h81.15c8.28 0 15 6.72 15 15v81.6c-12.23-18.81-33.84-30.99-58.19-29.93-33.81 1.48-61.29 28.89-62.83 62.71z" fill="#fc5832"/></g></svg>