<svg id="Capa_1" enable-background="new 0 0 512 512" height="512" viewBox="0 0 512 512" width="512" xmlns="http://www.w3.org/2000/svg"><g><path d="m402.718 335.824c-6.005-8.6-18.666-8.45-24.577-.027l-45.751 65.203 57.921 10 57.921-10z" fill="#f5f2f1"/><path d="m448.237 401-57.93 10v-81.58c4.69-.04 9.39 2.07 12.41 6.4z" fill="#e8e1de"/><path d="m509.275 488.412-61.042-87.412h-115.843l-17.609 25.096-.004 65.904 59.977 20h122.223c12.077 0 19.254-13.629 12.298-23.588z" fill="#607881"/><path d="m496.977 512h-106.67v-111h57.93l61.04 87.41c6.95 9.96-.22 23.59-12.3 23.59z" fill="#55696e"/><path d="m196.041 255.969-14.981-10.16-15.019 9.84-56.38 80.351 70.38 10 71.888-10z" fill="#f5f2f1"/><path d="m251.931 336-70.89 9.86v-100.04l.02-.01 14.98 10.16z" fill="#e8e1de"/><path d="m314.846 426.096-62.917-90.096h-142.268l-106.923 152.384c-6.956 9.916.143 23.616 12.28 23.616h359.792l-59.997-85.856z" fill="#55696e"/><path d="m181.041 336v176h193.778l-122.888-176z" fill="#495959"/><path d="m196.041 255.969v-145.969h-20c-3.905 3.905-6.095 6.095-10 10v135.649z" fill="#607881"/><path d="m196.041 110v145.97l-15-.16v-145.81z" fill="#55696e"/><path d="m385.781 142.08c6.175 9.941-.938 22.92-12.74 22.92h-108.233c-6.398 0-11.15-5.924-9.762-12.17l21.355-96.08c1.52-6.87 7.61-11.75 14.64-11.75h82c11.718 0 18.96 12.907 12.74 22.92l-23.07 37.08z" fill="#fc5832"/><path d="m196.041 10v100l-15 10h-15v-105c0-8.28 6.72-15 15-15z" fill="#eb8b7f"/><path d="m315.681 18.25-20 90c-1.52 6.87-7.61 11.75-14.64 11.75h-100v-120h120c9.59 0 16.72 8.9 14.64 18.25z" fill="#f47160"/></g></svg>